<?xml version="1.0" standalone="no"?><!DOCTYPE svg PUBLIC "-//W3C//DTD SVG 1.1//EN" "http://www.w3.org/Graphics/SVG/1.1/DTD/svg11.dtd"><svg t="1655293080181" class="icon" viewBox="0 0 1024 1024" version="1.1" xmlns="http://www.w3.org/2000/svg" p-id="13001" xmlns:xlink="http://www.w3.org/1999/xlink" width="200" height="200"><defs><style type="text/css">@font-face { font-family: feedback-iconfont; src: url("//at.alicdn.com/t/font_1031158_u69w8yhxdu.woff2?t=1630033759944") format("woff2"), url("//at.alicdn.com/t/font_1031158_u69w8yhxdu.woff?t=1630033759944") format("woff"), url("//at.alicdn.com/t/font_1031158_u69w8yhxdu.ttf?t=1630033759944") format("truetype"); }
</style></defs><path d="M522.88 826.56c-167.52 0-303.84-136.32-303.84-303.84 0-167.52 136.32-303.84 303.84-303.84 35.84 0 70.88 6.24 104.32 18.4 16.64 6.08 25.12 24.48 19.04 41.12a31.904 31.904 0 0 1-40.96 19.04c-26.4-9.6-54.08-14.56-82.4-14.56-132.32 0-239.84 107.68-239.84 239.84s107.68 239.84 239.84 239.84 239.84-107.52 239.84-239.84c0-20-2.4-40-7.36-59.2-4.32-17.12 6.08-34.56 23.2-38.88 17.12-4.32 34.56 6.08 38.88 23.2 6.24 24.32 9.28 49.6 9.28 74.88 0.16 167.52-136.16 303.84-303.84 303.84z" p-id="13002"></path><path d="M513.92 561.44c-4.16 0-8.16-1.6-11.36-4.64a15.936 15.936 0 0 1 0-22.56L745.6 291.2a15.936 15.936 0 1 1 22.56 22.56L525.28 556.8c-3.2 3.04-7.2 4.64-11.36 4.64z" p-id="13003"></path></svg>