<?xml version="1.0" standalone="no"?><!DOCTYPE svg PUBLIC "-//W3C//DTD SVG 1.1//EN" "http://www.w3.org/Graphics/SVG/1.1/DTD/svg11.dtd"><svg t="1655293122326" class="icon" viewBox="0 0 1024 1024" version="1.1" xmlns="http://www.w3.org/2000/svg" p-id="13818" xmlns:xlink="http://www.w3.org/1999/xlink" width="200" height="200"><defs><style type="text/css">@font-face { font-family: feedback-iconfont; src: url("//at.alicdn.com/t/font_1031158_u69w8yhxdu.woff2?t=1630033759944") format("woff2"), url("//at.alicdn.com/t/font_1031158_u69w8yhxdu.woff?t=1630033759944") format("woff"), url("//at.alicdn.com/t/font_1031158_u69w8yhxdu.ttf?t=1630033759944") format("truetype"); }
</style></defs><path d="M781.198222 156.785778a37.091556 37.091556 0 0 0-62.122666 29.354666 371.143111 371.143111 0 0 1-15.701334 121.287112C669.923556 219.136 595.512889 68.266667 464.896 22.755556a36.181333 36.181333 0 0 0-32.540444 5.461333 38.229333 38.229333 0 0 0-15.246223 32.312889c4.778667 109.909333-73.728 238.478222-117.873777 301.511111a308.110222 308.110222 0 0 0-78.506667-129.024A36.181333 36.181333 0 0 0 177.948444 227.555556 37.774222 37.774222 0 0 0 159.288889 266.24a239.388444 239.388444 0 0 1-35.271111 174.307556 316.302222 316.302222 0 0 0-47.104 163.384888c0 231.651556 184.092444 400.042667 437.589333 400.042667s437.589333-168.163556 437.589333-400.042667c-1.137778-255.089778-107.406222-389.802667-170.894222-447.146666zM513.365333 955.733333c-226.190222 0-390.257778-148.366222-390.257777-352.711111a269.198222 269.198222 0 0 1 41.415111-141.084444 285.127111 285.127111 0 0 0 43.690666-172.942222 310.840889 310.840889 0 0 1 55.978667 129.479111l8.874667 53.930666 33.905777-41.415111c6.599111-7.964444 155.875556-191.829333 157.696-357.944889C614.4 137.898667 678.115556 381.838222 678.798222 384.341333l15.473778 60.074667 28.444444-55.296a453.518222 453.518222 0 0 0 43.918223-180.906667c57.799111 59.619556 136.533333 182.044444 136.533333 395.719111C903.850667 808.504889 739.555556 955.733333 513.365333 955.733333z" p-id="13819"></path><path d="M554.097778 379.335111a22.755556 22.755556 0 0 0-42.097778 7.509333 548.408889 548.408889 0 0 1-91.022222 212.536889l-5.688889 7.964445a343.608889 343.608889 0 0 0-57.799111 102.627555 95.800889 95.800889 0 0 0 47.559111 116.508445 150.414222 150.414222 0 0 0 71.907555 17.294222 166.570667 166.570667 0 0 0 54.158223-9.102222A134.030222 134.030222 0 0 0 614.4 762.083556c35.953778-83.968 16.156444-179.541333-1.820444-244.394667a417.792 417.792 0 0 0-58.481778-138.353778z m16.156444 364.088889a86.926222 86.926222 0 0 1-53.475555 47.559111 113.777778 113.777778 0 0 1-87.836445-5.233778 48.696889 48.696889 0 0 1-24.803555-62.122666A304.696889 304.696889 0 0 1 455.111111 636.017778l5.688889-7.964445a535.893333 535.893333 0 0 0 82.375111-171.121777 669.468444 669.468444 0 0 1 22.755556 73.728c16.611556 57.799111 34.360889 142.677333 4.323555 212.992z" p-id="13820"></path></svg>