<?xml version="1.0" standalone="no"?><!DOCTYPE svg PUBLIC "-//W3C//DTD SVG 1.1//EN" "http://www.w3.org/Graphics/SVG/1.1/DTD/svg11.dtd"><svg t="1655360972878" class="icon" viewBox="0 0 1024 1024" version="1.1" xmlns="http://www.w3.org/2000/svg" p-id="7723" xmlns:xlink="http://www.w3.org/1999/xlink" width="200" height="200"><defs><style type="text/css">@font-face { font-family: feedback-iconfont; src: url("//at.alicdn.com/t/font_1031158_u69w8yhxdu.woff2?t=1630033759944") format("woff2"), url("//at.alicdn.com/t/font_1031158_u69w8yhxdu.woff?t=1630033759944") format("woff"), url("//at.alicdn.com/t/font_1031158_u69w8yhxdu.ttf?t=1630033759944") format("truetype"); }
</style></defs><path d="M875.789474 326.063158c-16.168421 0-29.642105-10.778947-29.642106-26.947369s13.473684-26.947368 29.642106-26.947368H943.157895V75.452632C943.157895 35.031579 905.431579 0 859.621053 0h-202.105264c-13.473684 61.978947-72.757895 107.789474-145.515789 107.789474s-132.042105-45.810526-145.515789-107.789474H164.378947C118.568421 0 80.842105 35.031579 80.842105 75.452632v196.715789h129.347369c16.168421 0 29.642105 10.778947 29.642105 26.947368s-13.473684 26.947368-29.642105 26.947369H80.842105v622.48421C80.842105 988.968421 118.568421 1024 164.378947 1024h202.105264c13.473684-61.978947 72.757895-107.789474 145.515789-107.789474s132.042105 45.810526 145.515789 107.789474h202.105264c45.810526 0 83.536842-35.031579 83.536842-75.452632V326.063158h-67.368421z m-393.431579 0H331.452632c-16.168421 0-29.642105-10.778947-29.642106-26.947369s13.473684-26.947368 29.642106-26.947368H485.052632c16.168421 0 29.642105 10.778947 29.642105 26.947368 0 13.473684-13.473684 26.947368-32.336842 26.947369z m274.863158 0h-153.6c-16.168421 0-29.642105-10.778947-29.642106-26.947369s13.473684-26.947368 29.642106-26.947368h153.6c16.168421 0 29.642105 10.778947 29.642105 26.947368 0 13.473684-13.473684 26.947368-29.642105 26.947369z" fill="#F6B03A" p-id="7724"></path></svg>